<?xml version="1.0" standalone="no"?>
<!DOCTYPE svg PUBLIC "-//W3C//DTD SVG 20010904//EN"
 "http://www.w3.org/TR/2001/REC-SVG-20010904/DTD/svg10.dtd">
<svg version="1.0" xmlns="http://www.w3.org/2000/svg"
 width="700.000000pt" height="700.000000pt" viewBox="0 0 700.000000 700.000000"
 preserveAspectRatio="xMidYMid meet">
<metadata>
Created by potrace 1.14, written by Peter Selinger 2001-2017
</metadata>
<g transform="translate(0.000000,700.000000) scale(0.100000,-0.100000)"
fill="#000000" stroke="none">
<path d="M2683 6324 c-97 -16 -163 -39 -245 -86 -96 -54 -155 -107 -226 -200
-269 -358 -152 -880 245 -1086 40 -20 73 -40 73 -43 0 -6 -336 -1022 -347
-1049 -3 -8 -7 -19 -9 -25 -5 -20 -465 -1400 -471 -1415 -3 -8 -7 -17 -8 -20
-11 -42 -91 -277 -96 -283 -3 -5 -25 -4 -47 2 -52 14 -183 20 -235 11 -23 -5
-58 -10 -77 -13 -19 -2 -66 -17 -105 -32 -369 -147 -556 -547 -430 -921 59
-176 188 -326 355 -413 259 -135 572 -105 797 76 33 26 75 66 94 88 19 22 39
45 45 52 6 6 29 47 51 90 42 80 66 153 78 233 3 25 8 52 11 60 3 13 85 15 664
15 653 0 661 0 665 -20 2 -11 7 -38 10 -60 38 -269 248 -510 515 -589 226 -67
485 -16 667 131 71 58 69 56 122 123 173 220 204 527 77 778 -72 143 -209 278
-338 334 -26 11 -48 24 -48 28 0 7 693 2096 707 2130 3 8 7 20 9 25 6 26 212
637 216 640 2 2 37 -2 78 -9 446 -76 858 276 854 729 -3 289 -177 554 -439
667 -139 61 -303 77 -455 44 -94 -20 -238 -90 -310 -152 -140 -120 -240 -300
-257 -464 -3 -30 -9 -57 -13 -60 -5 -3 -304 -5 -666 -5 l-658 0 -4 40 c-6 71
-42 187 -82 264 -39 75 -60 103 -124 171 -163 173 -407 254 -643 214z m2180
-763 c4 0 7 -18 7 -39 0 -52 35 -173 71 -246 74 -148 204 -276 347 -340 23
-10 42 -22 42 -26 0 -7 -484 -1467 -497 -1500 -3 -8 -7 -19 -9 -25 -4 -15
-144 -438 -151 -455 -3 -8 -7 -19 -9 -25 -1 -5 -61 -185 -133 -400 -109 -325
-133 -390 -148 -389 -10 1 -45 5 -78 10 -77 10 -146 10 -215 0 -30 -5 -63 -9
-73 -10 -15 -1 -27 25 -63 134 -25 74 -47 140 -48 145 -2 6 -6 17 -9 25 -6 16
-467 1398 -471 1415 -2 6 -6 17 -9 25 -12 30 -347 1044 -347 1051 0 3 15 12
33 19 39 16 151 90 193 127 81 74 168 209 205 318 16 48 14 37 23 115 5 36 12
67 16 70 7 4 1298 5 1323 1z m-2143 -690 c73 -8 139 -6 219 9 30 5 56 8 59 5
4 -4 768 -2286 776 -2320 2 -5 6 -17 9 -25 12 -30 147 -442 147 -450 0 -4 -15
-13 -32 -20 -44 -18 -154 -91 -198 -132 -122 -114 -212 -289 -229 -448 l-6
-55 -663 0 c-655 0 -663 0 -667 20 -2 11 -7 38 -10 60 -13 97 -63 220 -125
310 -68 97 -199 205 -297 244 -18 8 -33 17 -33 22 0 5 854 2577 926 2788 3 9
12 11 32 6 15 -4 56 -11 92 -14z"/>
</g>
</svg>
